<svg height="15" viewBox="0 0 20 15" width="20" xmlns="http://www.w3.org/2000/svg"><path id="discord" d="m6.62809892 6.5956921c.94092733 0 1.70294175.82594347 1.70294175 1.84373052 0 1.01957998-.76201442 1.84492578-1.70294175 1.84492578-.94211611 0-1.70472492-.8253458-1.70472492-1.84492578 0-1.01778705.76260881-1.84373052 1.70472492-1.84373052m6.06580128 0c.942116 0 1.7047249.82594347 1.7047249 1.84373052 0 1.01957998-.7626089 1.84492578-1.7047249 1.84492578-.940333 0-1.7029418-.8253458-1.7029418-1.84492578 0-1.01778705.7626088-1.84373052 1.7029418-1.84373052m-7.61182274 7.7843079s.6092549-.7404805 1.1109243-1.3769708c-2.11664068-.6269282-2.91669638-1.9584781-2.91669638-1.9584781s.16226984.1135523.45887296.2838807c.02437019.0149411.048146.0280892.07311058.041835.048146.0274916.09985836.0561785.15454271.0854631.43093639.2384598.84106896.4273151 1.22267056.5737378.67226078.2719278 1.49668668.5402698 2.44296356.7171723 1.25476789.233081 2.72114045.3053959 4.31352465.0089647.7804407-.1446297 1.5888179-.3765155 2.4197822-.7219535.5836959-.222921 1.2315865-.5372815 1.9193015-.9891001 0 0-.8232371 1.3697991-3.009422 1.9841767.498103.6311116 1.0913092 1.3512722 1.0913092 1.3512722 3.6763333-.1129546 5.0814831-2.540583 5.0814831-2.540583 0-5.36265597-2.3966007-9.70991552-2.3966007-9.70991552-2.3966008-1.80607896-4.6689729-1.74930281-4.6689729-1.74930281l-.2330029.26774433c2.8400194.86239972 4.1476885 2.11804892 4.1476885 2.11804892-1.7308783-.94726511-3.4344145-1.42119648-5.0155052-1.59989192-1.2066219-.1356651-2.34310518-.09920884-3.36605903.02988218-.0945088.01255052-.18604564.02689396-.27936566.04004212-.58310152.0561785-1.99062893.26774433-3.77797477 1.05424331-.63005873.26834198-.98847893.47572431-.98847893.47572431s1.36710855-1.32676879 4.36999222-2.18976616l-.17178016-.19602709s-2.27118339-.05677615-4.66897292 1.74930281c0 0-2.39541195 4.34725955-2.39541195 9.70991552 0 0 1.40514984 2.4276284 5.08207746 2.540583" fill="currentColor" fill-rule="evenodd"/></svg>