<svg height="14" viewBox="0 0 16 14" width="16" xmlns="http://www.w3.org/2000/svg"><path id="twitter" d="m80.0313161 111.45031c6.0373234 0 9.3394846-5.001879 9.3394846-9.339485 0-.14207 0-.283499-.0095993-.424289.6424056-.464664 1.1969409-1.040002 1.6376415-1.6990773-.599074.2654543-1.2345799.4395383-1.8853036.5164423.6852266-.410221 1.1980724-1.0554293 1.4430956-1.8155483-.6443326.3823437-1.3492489.6518005-2.0843292.7967423-1.0174735-1.0819094-2.6342291-1.3467105-3.9436833-.6459181-1.3094541.7007924-1.9859519 2.1928951-1.6501522 3.6396221-2.6392358-.132311-5.0982068-1.378894-6.7649507-3.4295125-.8712185 1.4998245-.426217 3.4185425 1.0162465 4.3817635-.5223679-.015482-1.0333465-.156397-1.4898123-.410851v.041597c.0004276 1.562507 1.1018413 2.908293 2.6334096 3.217688-.4832485.131792-.9902768.151057-1.4821328.056316.4300155 1.337133 1.6623275 2.253138 3.0666582 2.279515-1.1623255.91349-2.598174 1.409388-4.0765052 1.407898-.2611628-.000501-.5220717-.016314-.7813835-.047357 1.5010984.963308 3.2477097 1.474273 5.0313161 1.471894" fill="currentColor" transform="translate(-75 -98)"/></svg>